# xmcd
#
# Track frame offsets:
#	150
#	11852
#	23772
#	34267
#	46502
#	60107
#	74057
#	83407
#	97960
#	113830
#	132427
#	144907
#
# Disc length: 2137
#
# Revision: 2
# Processed by: cddbd v1.5.1PL0 Copyright (c) Steve Scherf et al.
# Submitted via: EasyCDDAExtractor 5.0.7
# Normalized: r1:DSETVAR1
#
DISCID=9108570c
DTITLE=Various Artist - Great Women of Country
DYEAR=1994
DGENRE=country
TTITLE0=Patsy Cline - Walkin' After
TTITLE1=Skeeter Davis - The End of the World
TTITLE2=Connie Smith - Once A Day
TTITLE3=Tammy Wynette - Stand By Your Man
TTITLE4=Loretta Lynn - Coal Miner's Daughter
TTITLE5=Dolly Parton - Coat of Many Colors
TTITLE6=Dottie West - Country Sunshine
TTITLE7=Sylvia - Tumbleweed
TTITLE8=The Judds - Why Not Me
TTITLE9=Juice Newton - You Make Me Want to Make You Mine
TTITLE10=Lorrie Morgan - What Part of No
TTITLE11=Lari White - That's My Baby
EXTD=
EXTT0=
EXTT1=
EXTT2=
EXTT3=
EXTT4=
EXTT5=
EXTT6=
EXTT7=
EXTT8=
EXTT9=
EXTT10=
EXTT11=
PLAYORDER=
